<?xml version="1.0" encoding="UTF-8"?>
<svg width="35px" height="37px" viewBox="0 0 35 37" version="1.1" xmlns="http://www.w3.org/2000/svg" xmlns:xlink="http://www.w3.org/1999/xlink">
    <!-- Generator: Sketch 53.2 (72643) - https://sketchapp.com -->
    <title>Second_banner_img1</title>
    <desc>Created with Sketch.</desc>
    <defs>
        <rect id="path-1" x="0" y="0" width="35" height="37"></rect>
    </defs>
    <g id="Page-1-Copy" stroke="none" stroke-width="1" fill="none" fill-rule="evenodd">
        <g id="Artboard" transform="translate(-1167.000000, -663.000000)">
            <g id="Second_banner_img1" transform="translate(1167.000000, 663.000000)">
                <mask id="mask-2" fill="white">
                    <use xlink:href="#path-1"></use>
                </mask>
                <use id="Mask" fill="#FFFFFF" xlink:href="#path-1"></use>
                <g id="trophy" mask="url(#mask-2)">
                    <g transform="translate(1.000000, 0.000000)">
                        <path d="M24.9242909,5.91154492 C24.9242909,10.1303398 23.9493091,14.0839922 22.1790545,17.0439922 C20.4923636,19.8645195 18.2980364,21.4178691 16.0004364,21.4178691 C13.7024727,21.4178691 11.508,19.8645918 9.82109091,17.0441367 C8.05076364,14.0840645 7.07578182,10.1304121 7.07578182,5.91168945 L7.07578182,1.81473437 C7.07578182,1.75836719 7.12189091,1.71262305 7.17847273,1.71262305 L24.8214545,1.71262305 C24.8781818,1.71262305 24.9242909,1.75843945 24.9242909,1.81473437 L24.9242909,5.91154492 L24.9242909,5.91154492 Z" id="Path" fill="#FF7B39" fill-rule="evenodd"></path>
                        <path d="M31.3054545,3.56804297 C30.7916364,2.96766016 30.0423273,2.62345898 29.2496727,2.62345898 L26.648,2.62345898 L26.648,1.81480664 C26.648,0.814144531 25.8285818,0 24.8216,0 L7.17854545,0 C6.17141818,0 5.35221818,0.814144531 5.35221818,1.81473438 L5.35221818,2.62338672 L2.75025455,2.62338672 C1.9576,2.62338672 1.20821818,2.96766016 0.694472727,3.5679707 C0.185963636,4.16206641 -0.0338181818,4.94239062 0.0916363636,5.70876758 C0.775272727,9.8857207 3.42072727,13.5758203 7.17527273,15.5999082 C7.51832727,16.4194727 7.90683636,17.19575 8.33949091,17.9189844 C9.72145455,20.2296777 11.4394909,21.8266035 13.3305455,22.5989063 C13.5221818,24.5243516 12.2328,26.3484082 10.2909818,26.7830859 C10.2868364,26.7840254 10.2839273,26.7854707 10.2798545,26.7864102 C9.90087273,26.8763809 9.61876364,27.2142949 9.61876364,27.6184043 L9.61876364,31.5469805 L8.01978182,31.5469805 C6.59418182,31.5469805 5.4344,32.6994004 5.4344,34.1159512 L5.4344,36.1435801 C5.4344,36.6165586 5.82021818,36.9999277 6.29621818,36.9999277 L25.7861818,36.9999277 C26.2621818,36.9999277 26.648,36.6165586 26.648,36.1435801 L26.648,34.1159512 C26.648,32.6994004 25.4882182,31.5469805 24.0626182,31.5469805 L22.4634909,31.5469805 L22.4634909,27.6184766 C22.4634909,27.2135723 22.1803636,26.8751523 21.8003636,26.7859766 C21.7968,26.7851094 21.7933818,26.7839531 21.7898182,26.7830859 C19.8333091,26.3455176 18.5415273,24.5031055 18.7533091,22.563207 C20.6113455,21.7784023 22.2992727,20.1957129 23.6608727,17.9191289 C24.0935273,17.1958223 24.4819636,16.4194727 24.8250909,15.5997637 C28.5794182,13.5756035 31.2247273,9.88557617 31.9083636,5.70876758 C32.0338182,4.94239062 31.8140364,4.16213867 31.3054545,3.56804297 Z M1.79287273,5.43379687 C1.74807273,5.16012695 1.82421818,4.89151562 2.00734545,4.67746484 C2.19316364,4.46037891 2.46385455,4.3359375 2.75018182,4.3359375 L5.35214545,4.3359375 L5.35214545,5.91147266 C5.35214545,8.38194531 5.66945455,10.7749492 6.27083636,12.9633691 C3.90749091,11.1076602 2.28029091,8.41193555 1.79287273,5.43379687 Z M24.0626182,33.259748 C24.5378182,33.259748 24.9244364,33.6439121 24.9244364,34.1160957 L24.9244364,35.287377 L7.15796364,35.287377 L7.15796364,34.1160957 C7.15796364,33.6439121 7.54458182,33.259748 8.01978182,33.259748 L24.0626182,33.259748 L24.0626182,33.259748 Z M20.7398545,28.4748242 L20.7398545,31.5470527 L11.3425455,31.5470527 L11.3425455,28.4748242 L20.7398545,28.4748242 Z M13.6026909,26.7622012 C13.8157091,26.5292168 14.0104727,26.2766484 14.1846545,26.0063027 C14.7589818,25.1146172 15.0604364,24.1015977 15.0739636,23.0669707 C15.3800727,23.1083789 15.6890182,23.1305645 16.0005818,23.1305645 C16.3395636,23.1305645 16.6754182,23.1046934 17.008,23.0556973 C17.0276364,24.4460156 17.5722182,25.7620449 18.4879273,26.7621289 L13.6026909,26.7621289 L13.6026909,26.7622012 Z M24.9242909,5.91154492 C24.9242909,10.1303398 23.9493091,14.0839922 22.1790545,17.0439922 C20.4923636,19.8645195 18.2980364,21.4178691 16.0004364,21.4178691 C13.7024727,21.4178691 11.508,19.8645918 9.82109091,17.0441367 C8.05076364,14.0840645 7.07578182,10.1304121 7.07578182,5.91168945 L7.07578182,1.81473438 C7.07578182,1.75836719 7.12189091,1.71262305 7.17847273,1.71262305 L24.8214545,1.71262305 C24.8781818,1.71262305 24.9242909,1.75843945 24.9242909,1.81473438 L24.9242909,5.91154492 L24.9242909,5.91154492 Z M30.2071273,5.43379688 C29.7197091,8.41171875 28.0926545,11.1073711 25.7293818,12.9632246 C26.3306909,10.7748047 26.648,8.38194531 26.648,5.91154492 L26.648,4.33600977 L29.2496727,4.33600977 C29.5360727,4.33600977 29.8067636,4.46052344 29.9925091,4.67753711 C30.1756364,4.89151563 30.2518545,5.16012695 30.2071273,5.43379688 Z" id="Shape" fill="#FF7B39" fill-rule="nonzero"></path>
                        <path d="M21.2320727,8.79169141 C21.1306182,8.48181641 20.8609455,8.25591406 20.5363636,8.20894141 L17.9357818,7.83344922 L16.7728,5.49189844 C16.6275636,5.19965625 16.328,5.01458398 16,5.01458398 C15.6719273,5.01458398 15.3723636,5.19965625 15.2272,5.49189844 L14.0642182,7.83344922 L11.4636364,8.20894141 C11.1389818,8.25576953 10.8693091,8.48174414 10.7679273,8.79176367 C10.6666182,9.10185547 10.7511273,9.44208203 10.9860364,9.66964648 L12.8678545,11.4922578 L12.4235636,14.0658535 C12.3680727,14.3871465 12.5009455,14.7117637 12.7664,14.9034121 C13.0317091,15.0949883 13.3836364,15.120209 13.6739636,14.9685957 L16,13.7535938 L18.3259636,14.9685957 C18.4520727,15.0344297 18.5897455,15.066877 18.7268364,15.066877 C18.9054545,15.066877 19.0833455,15.0117383 19.2334545,14.9033398 C19.4989091,14.7116914 19.6317818,14.3870742 19.5762909,14.0657813 L19.132,11.4921855 L21.0138182,9.66957422 C21.2488727,9.44208203 21.3333818,9.1017832 21.2320727,8.79169141 Z M17.6046545,10.5800488 C17.4015273,10.7767559 17.3088,11.0601816 17.3568,11.338043 L17.5824,12.6453281 L16.4009455,12.0281074 C16.2754909,11.9624902 16.1376727,11.9298262 15.9999273,11.9298262 C15.8621818,11.9298262 15.7244364,11.9626348 15.5989091,12.0281074 L14.4174545,12.6453281 L14.6430545,11.338043 C14.6910545,11.0602539 14.5983273,10.7768281 14.3952,10.5800488 L13.4394909,9.65432617 L14.7603636,9.46354492 C15.0410182,9.42307617 15.2837091,9.24783203 15.4092364,8.99511914 L16,7.80577148 L16.5906909,8.99511914 C16.7162909,9.24783203 16.9588364,9.42300391 17.2395636,9.46354492 L18.5604364,9.65432617 L17.6046545,10.5800488 Z" id="Shape" fill="#FFFFFF" fill-rule="nonzero"></path>
                    </g>
                </g>
            </g>
        </g>
    </g>
</svg>