<?xml version="1.0" encoding="UTF-8"?>
<svg width="35px" height="37px" viewBox="0 0 35 37" version="1.1" xmlns="http://www.w3.org/2000/svg" xmlns:xlink="http://www.w3.org/1999/xlink">
    <!-- Generator: Sketch 53.2 (72643) - https://sketchapp.com -->
    <title>Second_banner_img4</title>
    <desc>Created with Sketch.</desc>
    <defs>
        <rect id="path-1" x="0" y="0" width="35" height="37"></rect>
    </defs>
    <g id="Page-1-Copy" stroke="none" stroke-width="1" fill="none" fill-rule="evenodd">
        <g id="Artboard" transform="translate(-1253.000000, -742.000000)">
            <g id="Second_banner_img4" transform="translate(1253.000000, 742.000000)">
                <mask id="mask-2" fill="white">
                    <use xlink:href="#path-1"></use>
                </mask>
                <use id="Mask" fill="#FFFFFF" xlink:href="#path-1"></use>
                <g id="earnings" mask="url(#mask-2)" fill="#FF7B39" fill-rule="nonzero">
                    <g transform="translate(4.000000, 0.000000)" id="Path">
                        <path d="M0,34.9453125 C0,35.5278625 0.471853903,36 1.05405405,36 L6.11461149,36 C6.69653716,36 7.16866554,35.5278625 7.16866554,34.9453125 L7.16866554,32.4992066 L0,32.4992066 L0,34.9453125 Z"></path>
                        <path d="M7.16866554,27.7937622 C7.16866554,27.2112121 6.69653716,26.7390747 6.11461149,26.7390747 L1.05405405,26.7390747 C0.471853903,26.7390747 0,27.2112121 0,27.7937622 L0,30.3898316 L7.16866554,30.3898316 L7.16866554,27.7937622 Z"></path>
                        <path d="M9.39068836,34.9453125 C9.39068836,35.5278625 9.86254219,36 10.4447424,36 L15.5052998,36 C16.0872255,36 16.5590794,35.5278625 16.5590794,34.9453125 L16.5590794,32.4992066 L9.39068836,32.4992066 L9.39068836,34.9453125 Z"></path>
                        <path d="M16.5590794,22.5263672 C16.5590794,21.9440918 16.0872255,21.4716797 15.5052998,21.4716797 L10.4447424,21.4716797 C9.86254219,21.4716797 9.39068836,21.9440918 9.39068836,22.5263672 L9.39068836,25.2281799 L16.5590794,25.2281799 L16.5590794,22.5263672 Z"></path>
                        <polygon points="9.39068836 27.3375549 16.5590794 27.3375549 16.5590794 30.3898316 9.39068836 30.3898316"></polygon>
                        <polygon points="18.7813767 17.013977 25.9497677 17.013977 25.9497677 20.0665283 18.7813767 20.0665283"></polygon>
                        <path d="M25.9497677,12.5054627 C25.9497677,11.9229126 25.4779138,11.4507752 24.8957137,11.4507752 L19.8351562,11.4507752 C19.2532306,11.4507752 18.7811022,11.9229126 18.7811022,12.5054627 L18.7811022,14.9048767 L25.9497677,14.9048767 L25.9497677,12.5054627 Z"></path>
                        <path d="M18.7813767,34.9453125 C18.7813767,35.5278625 19.2532306,36 19.8354308,36 L24.8957137,36 C25.4779138,36 25.9497677,35.5278625 25.9497677,34.9453125 L25.9497677,32.4992066 L18.7813767,32.4992066 L18.7813767,34.9453125 Z"></path>
                        <polygon points="18.7813767 27.3375549 25.9497677 27.3375549 25.9497677 30.3898316 18.7813767 30.3898316"></polygon>
                        <polygon points="18.7813767 22.1759033 25.9497677 22.1759033 25.9497677 25.2281799 18.7813767 25.2281799"></polygon>
                        <path d="M1.91815878,16.6659851 C2.10701014,16.6659851 2.29833191,16.6151734 2.47098814,16.5086059 L22.403315,4.19100954 L22.1079603,5.43850706 C21.9737331,6.00540159 22.324261,6.57366947 22.8905405,6.70797731 C22.9723395,6.72720335 23.0541385,6.73654177 23.134565,6.73654177 C23.6119088,6.73654177 24.0445101,6.40997311 24.1592483,5.92492676 L25.0074324,2.34310915 C25.1301309,2.04180905 25.1133868,1.68832399 24.9294764,1.39031986 C24.9278294,1.38757324 24.9256335,1.38510134 24.9239865,1.38235472 C24.9223395,1.37960817 24.920967,1.37658691 24.9193201,1.3738403 C24.7721917,1.13571169 24.5366765,0.965698242 24.2643792,0.901428187 L20.5655827,0.0285644531 C19.9987542,-0.10546875 19.4313767,0.24609375 19.2976985,0.812713641 C19.1640203,1.37988281 19.5150971,1.94760134 20.0816512,2.08135983 L21.328674,2.37579342 L1.36340796,14.7139893 C0.8679476,15.0199585 0.71450593,15.6697998 1.02029137,16.1652832 C1.2195735,16.4882812 1.56488596,16.6659851 1.91815878,16.6659851 Z"></path>
                    </g>
                </g>
            </g>
        </g>
    </g>
</svg>