<?xml version="1.0" encoding="UTF-8"?>
<svg width="70px" height="70px" viewBox="0 0 70 70" version="1.1" xmlns="http://www.w3.org/2000/svg" xmlns:xlink="http://www.w3.org/1999/xlink">
    <!-- Generator: Sketch 53.2 (72643) - https://sketchapp.com -->
    <title>First_banner_img2</title>
    <desc>Created with Sketch.</desc>
    <g id="Page-1-Copy" stroke="none" stroke-width="1" fill="none" fill-rule="evenodd">
        <g id="Artboard" transform="translate(-1288.000000, -232.000000)">
            <g id="First_banner_img2" transform="translate(1288.000000, 232.000000)">
                <circle id="Oval" fill="#FFFFFF" cx="35" cy="35" r="35"></circle>
                <g id="hotel-with-three-floors-(1)" transform="translate(22.000000, 18.000000)" fill="#FF7B39" fill-rule="nonzero">
                    <path d="M21.125,3.4 L21.125,0 L4.875,0 L4.875,3.4 L0,3.4 L0,34 L9.75,34 L9.75,30.6 L16.25,30.6 L16.25,34 L26,34 L26,3.4 L21.125,3.4 Z M11.375,25.5 L8.125,25.5 L8.125,22.1 L11.375,22.1 L11.375,25.5 Z M11.375,18.7 L8.125,18.7 L8.125,15.3 L11.375,15.3 L11.375,18.7 Z M11.375,11.9 L8.125,11.9 L8.125,8.5 L11.375,8.5 L11.375,11.9 Z M17.875,25.5 L14.625,25.5 L14.625,22.1 L17.875,22.1 L17.875,25.5 Z M17.875,18.7 L14.625,18.7 L14.625,15.3 L17.875,15.3 L17.875,18.7 Z M17.875,11.9 L14.625,11.9 L14.625,8.5 L17.875,8.5 L17.875,11.9 Z" id="Shape"></path>
                </g>
            </g>
        </g>
    </g>
</svg>