<?xml version="1.0" encoding="UTF-8"?>
<svg width="35px" height="37px" viewBox="0 0 35 37" version="1.1" xmlns="http://www.w3.org/2000/svg" xmlns:xlink="http://www.w3.org/1999/xlink">
    <!-- Generator: Sketch 53.2 (72643) - https://sketchapp.com -->
    <title>Second_banner_img6</title>
    <desc>Created with Sketch.</desc>
    <defs>
        <rect id="path-1" x="0" y="0" width="35" height="37"></rect>
    </defs>
    <g id="Page-1-Copy" stroke="none" stroke-width="1" fill="none" fill-rule="evenodd">
        <g id="Artboard" transform="translate(-1253.000000, -828.000000)">
            <g id="Second_banner_img6" transform="translate(1253.000000, 828.000000)">
                <mask id="mask-2" fill="white">
                    <use xlink:href="#path-1"></use>
                </mask>
                <use id="Mask" fill="#FFFFFF" xlink:href="#path-1"></use>
                <g id="tag-(4)" mask="url(#mask-2)">
                    <g transform="translate(2.000000, 3.000000)">
                        <path d="M30.733957,0.266042969 C30.379334,-0.088640625 29.8041992,-0.088640625 29.4495156,0.266042969 L26.8042227,2.91133594 C26.6415938,2.83383594 26.4700039,2.77141211 26.2908457,2.72666797 L18.0703359,0.695744141 C17.1472383,0.465 16.1557227,0.739580078 15.4828652,1.4124375 L0.796796875,16.0743477 C-0.265498047,17.1367031 -0.265498047,18.8653164 0.796796875,19.9277324 L11.0723887,30.2032637 C12.1347441,31.2656191 13.8633574,31.2656797 14.9257734,30.2032637 L29.5876836,15.5171348 C30.260541,14.8442773 30.5351816,13.8527617 30.3043164,12.9296035 L28.2734531,4.7091543 C28.2286484,4.53005664 28.1662852,4.35840625 28.0887852,4.19577734 L30.7340781,1.55048437 C31.0886406,1.19580078 31.0886406,0.620726562 30.733957,0.266042969 Z" id="Path" fill="#FF7B39" fill-rule="evenodd"></path>
                        <path d="M30.733957,0.266042969 C30.379334,-0.088640625 29.8041992,-0.088640625 29.4495156,0.266042969 L26.8042227,2.91133594 C26.6415938,2.83383594 26.4700039,2.77141211 26.2908457,2.72666797 L18.0703359,0.695744141 C17.1472383,0.465 16.1557227,0.739580078 15.4828652,1.4124375 L0.796796875,16.0743477 C-0.265498047,17.1367031 -0.265498047,18.8653164 0.796796875,19.9277324 L11.0723887,30.2032637 C12.1347441,31.2656191 13.8633574,31.2656797 14.9257734,30.2032637 L29.5876836,15.5171348 C30.260541,14.8442773 30.5351816,13.8527617 30.3043164,12.9296035 L28.2734531,4.7091543 C28.2286484,4.53005664 28.1662852,4.35840625 28.0887852,4.19577734 L30.7340781,1.55048437 C31.0886406,1.19580078 31.0886406,0.620726562 30.733957,0.266042969 Z M28.5419785,13.3702637 C28.6189336,13.6779629 28.5273867,14.0084277 28.3031211,14.2327539 L13.6412109,28.9188223 C13.2870723,29.2729609 12.7108477,29.2729609 12.356709,28.9188223 L2.08117773,18.6432305 C1.72703906,18.2890918 1.72703906,17.7128672 2.08117773,17.3587285 L16.7673066,2.69687891 C16.9390781,2.52510742 17.1731523,2.43119922 17.4115859,2.43119922 C17.4844844,2.43119922 17.5578066,2.43997852 17.6297969,2.45796094 L25.3513398,4.3641582 L23.164084,6.55141406 C22.1514375,6.06909766 20.9005996,6.24601562 20.0634785,7.08313672 C19.0010625,8.14555273 19.0010625,9.87410547 20.0634785,10.9365215 C20.5945957,11.4676992 21.2923984,11.7333184 21.9901406,11.7333184 C22.6878223,11.7333184 23.385625,11.4677598 23.9167422,10.9365215 C24.7540449,10.0992793 24.9309023,8.84850195 24.4484648,7.83585547 L26.6357207,5.64859961 L28.5419785,13.3702637 Z M22.6323613,9.65214063 C22.2782832,10.0062188 21.7020586,10.0062793 21.3479199,9.65214063 C20.9938418,9.2980625 20.9938418,8.72177734 21.3479199,8.36769922 C21.5250195,8.19059961 21.7575195,8.10214063 21.9901406,8.10214063 C22.2226406,8.10214063 22.4552617,8.19066016 22.6322402,8.36763867 L22.6323008,8.36769922 L22.6323613,8.36775977 C22.9865,8.72183789 22.9864395,9.2980625 22.6323613,9.65214063 Z" id="Shape" fill="#FF7B39" fill-rule="nonzero"></path>
                        <path d="M22.6323613,9.65214062 C22.2782832,10.0062187 21.7020586,10.0062793 21.3479199,9.65214062 C20.9938418,9.2980625 20.9938418,8.72177734 21.3479199,8.36769922 C21.5250195,8.19059961 21.7575195,8.10214062 21.9901406,8.10214062 C22.2226406,8.10214062 22.4552617,8.19066016 22.6322402,8.36763867 L22.6323008,8.36769922 L22.6323613,8.36775977 C22.9865,8.72183789 22.9864395,9.2980625 22.6323613,9.65214062 Z" id="Path" fill="#FFFFFF" fill-rule="evenodd"></path>
                        <path d="M14.9256523,10.936582 C13.8632969,9.87422656 12.1346836,9.87422656 11.0722676,10.936582 C10.0099727,11.9989375 10.0099727,13.7275508 11.0722676,14.7899668 C12.134623,15.8523223 13.8632969,15.8523223 14.9256523,14.7899668 C15.9880684,13.7275508 15.9880684,11.998998 14.9256523,10.936582 Z M13.6412715,13.5054648 C13.2871328,13.8596035 12.7109082,13.8596035 12.3568301,13.5054648 C12.002752,13.1513262 12.0026309,12.5751016 12.3567695,12.2210234 C12.7109082,11.8669453 13.2870723,11.8668848 13.6412715,12.2210234 C13.9953496,12.5751016 13.9953496,13.1513262 13.6412715,13.5054648 Z" id="Shape" fill="#FFFFFF" fill-rule="nonzero"></path>
                        <path d="M16.2100937,19.9276719 C15.1452559,18.862834 13.4217891,18.8627129 12.3567695,19.9276719 C11.2943535,20.9900879 11.2943535,22.7186406 12.3567695,23.7810566 C13.421668,24.8458945 15.1451348,24.8460762 16.2100937,23.7810566 C17.2725098,22.7186406 17.2725098,20.9900879 16.2100937,19.9276719 Z M14.9256523,22.4966152 C14.5707871,22.851541 13.9961367,22.8516016 13.6412109,22.4966152 C13.2871328,22.1425371 13.2871328,21.566252 13.6412109,21.2121738 C13.9961367,20.857248 14.5707266,20.8571875 14.9256523,21.2121738 C15.2797305,21.566252 15.2797305,22.142416 14.9256523,22.4966152 Z" id="Shape" fill="#FFFFFF" fill-rule="nonzero"></path>
                        <path d="M20.3239512,16.6163027 C20.2685508,16.1177598 19.8194141,15.7584746 19.3209316,15.813875 L7.76095898,17.0983164 C7.26241602,17.1537168 6.90313086,17.6027324 6.95853125,18.1013359 C7.01017773,18.565791 7.40336914,18.9093945 7.86013477,18.9093945 C7.89361719,18.9093945 7.92752344,18.9075176 7.96155078,18.9037637 L19.521584,17.6193223 C20.020127,17.5638613 20.3794121,17.1148457 20.3239512,16.6163027 Z" id="Path" fill="#FFFFFF" fill-rule="nonzero"></path>
                    </g>
                </g>
            </g>
        </g>
    </g>
</svg>