<?xml version="1.0" encoding="UTF-8"?>
<svg width="35px" height="37px" viewBox="0 0 35 37" version="1.1" xmlns="http://www.w3.org/2000/svg" xmlns:xlink="http://www.w3.org/1999/xlink">
    <!-- Generator: Sketch 53.2 (72643) - https://sketchapp.com -->
    <title>Second_banner_img3</title>
    <desc>Created with Sketch.</desc>
    <defs>
        <rect id="path-1" x="0" y="0" width="35" height="37"></rect>
    </defs>
    <g id="Page-1-Copy" stroke="none" stroke-width="1" fill="none" fill-rule="evenodd">
        <g id="Artboard" transform="translate(-1167.000000, -749.000000)">
            <g id="Second_banner_img3" transform="translate(1167.000000, 749.000000)">
                <mask id="mask-2" fill="white">
                    <use xlink:href="#path-1"></use>
                </mask>
                <use id="Mask" fill="#FFFFFF" xlink:href="#path-1"></use>
                <g id="money-(3)" mask="url(#mask-2)" fill-rule="nonzero">
                    <g transform="translate(1.000000, 3.000000)">
                        <ellipse id="Oval" stroke="none" fill="#FF7B39" cx="11.2010468" cy="10.0021908" rx="9.21446029" ry="9.32039474"></ellipse>
                        <path d="M32.9568513,24.5164452 C32.9568513,24.4960504 32.9568513,24.4756557 32.9501303,24.455261 C32.9501303,24.4348662 32.9434094,24.4144715 32.9366884,24.3940768 C32.9299674,24.373682 32.9299674,24.3532873 32.9232464,24.3396908 C32.9165255,24.3192961 32.9098045,24.3056996 32.8963625,24.2853048 C32.8896415,24.2649101 32.8829206,24.2513136 32.8694786,24.2309189 C32.8627576,24.2105241 32.8493157,24.1969276 32.8358737,24.1833311 C32.8224318,24.1697346 32.8157108,24.1493399 32.8022688,24.1357434 C32.7888269,24.1221469 32.7753849,24.1085504 32.755222,24.0949539 C32.74178,24.0813575 32.7283381,24.067761 32.7148961,24.0541645 C32.7014542,24.040568 32.6812912,24.0337697 32.6611283,24.0201732 C32.6476864,24.013375 32.6342444,23.9997785 32.6140815,23.9929803 L25.2008432,20.2947346 C25.1806802,20.2811382 25.1605173,20.2743399 25.1336334,20.2675417 C25.0059348,20.2199539 21.94789,19.1390329 19.4476864,20.2743399 L13.9297637,22.2934189 C13.9163218,22.3002171 13.8961589,22.3070154 13.8827169,22.3138136 C13.0896415,22.6809189 12.6729409,23.5035066 12.8409654,24.3668838 C13.0089898,25.2234627 13.6945295,25.8285066 14.5548147,25.8692961 C14.5615356,25.8692961 14.5615356,25.8692961 14.5682566,25.8692961 C14.6220244,25.8692961 14.8639796,25.8556996 17.3776253,25.6925417 C18.4731446,25.6245592 19.6022688,25.5497785 19.7030835,25.5429803 C20.0189695,25.5293838 20.2810876,25.2710504 20.2878086,24.9447346 C20.2945295,24.6048224 20.0324114,24.3192961 19.6896415,24.3124978 C19.6560367,24.3124978 19.6560367,24.3124978 17.3036945,24.4620592 C16.1275234,24.5368399 14.8102118,24.6252171 14.5884196,24.6388136 C14.164998,24.6048224 14.0641833,24.2445154 14.0372994,24.1357434 C13.9902525,23.9046031 14.0574623,23.598682 14.3733483,23.4423224 L19.8845499,21.4232434 C19.8979919,21.4164452 19.9114338,21.4096469 19.9315967,21.4028487 C21.8672383,20.5122785 24.3943259,21.3144715 24.6967699,21.4096469 L27.9967699,23.0548224 L26.1821059,27.3853048 C25.2882159,26.8278487 24.1994175,26.6782873 23.1912709,26.9842083 L15.7847536,29.2344276 C14.9043055,29.5063575 13.9297637,29.4043838 13.1165255,28.9556996 L1.51611813,22.5993399 C1.09941752,22.3681996 1.23383707,21.9671031 1.26744196,21.8855241 C1.30776782,21.7767522 1.48251324,21.4368399 1.90593483,21.5524101 L10.9187658,24.5912259 C11.2346517,24.6999978 11.5841426,24.5232434 11.6916782,24.2037259 C11.7992138,23.8774101 11.6244684,23.5306996 11.3085825,23.4219276 L2.27558859,20.3695154 C2.26214664,20.3627171 2.25542566,20.3627171 2.24198371,20.3627171 C1.34809369,20.1179803 0.481087576,20.553068 0.138317719,21.4232434 C-0.211173116,22.3002171 0.118154786,23.2247785 0.938114053,23.680261 L12.5452424,30.0570154 C13.6407617,30.6620592 14.9513523,30.7980241 16.1409654,30.4309189 L23.5474827,28.1806996 C24.2263014,27.9767522 24.958888,28.0719276 25.557055,28.4594276 L29.3342444,30.8660066 C29.3544073,30.8796031 29.3678493,30.8864013 29.3880122,30.8931996 C29.3947332,30.8931996 29.3947332,30.8999978 29.4014542,30.8999978 L29.4081752,30.8999978 C29.4148961,30.9067961 29.4216171,30.9067961 29.4350591,30.9067961 C29.448501,30.9135943 29.468664,30.9203925 29.4821059,30.9271908 C29.4888269,30.9271908 29.5022688,30.933989 29.5089898,30.933989 C29.5224318,30.9407873 29.5425947,30.9407873 29.5560367,30.9475855 C29.5627576,30.9475855 29.5761996,30.9475855 29.5829206,30.9543838 C29.6098045,30.9543838 29.6299674,30.961182 29.6568513,30.961182 L29.6568513,30.961182 L29.6568513,30.961182 L29.6568513,30.961182 L29.6568513,30.961182 C29.6837352,30.961182 29.7106191,30.961182 29.7375031,30.9543838 C29.744224,30.9543838 29.757666,30.9543838 29.764387,30.9475855 C29.7845499,30.9475855 29.7979919,30.9407873 29.8181548,30.933989 C29.8248758,30.933989 29.8383177,30.9271908 29.8450387,30.9271908 C29.8584807,30.9203925 29.8786436,30.9135943 29.8920855,30.9067961 C29.8988065,30.8999978 29.9122485,30.8999978 29.9189695,30.8931996 C29.9324114,30.8864013 29.9458534,30.8796031 29.9660163,30.8660066 C29.9727373,30.8592083 29.9861792,30.8524101 29.9929002,30.8524101 C30.0063422,30.8456118 30.0197841,30.8320154 30.0332261,30.8252171 C30.039947,30.8184189 30.053389,30.8116206 30.06011,30.8048224 C30.0735519,30.7912259 30.0802729,30.7844276 30.0937149,30.7708311 C30.1004358,30.7640329 30.1071568,30.7572346 30.1205988,30.7436382 C30.1340407,30.7300417 30.1407617,30.7164452 30.1474827,30.7028487 C30.1542037,30.6960504 30.1609246,30.6824539 30.1676456,30.6756557 C30.1676456,30.6756557 30.1676456,30.6688575 30.1743666,30.6688575 C30.1743666,30.6620592 30.1810876,30.655261 30.1810876,30.655261 C30.1878086,30.6416645 30.2012505,30.6212697 30.2079715,30.600875 L32.8963625,24.8087697 C32.9030835,24.788375 32.9098045,24.7747785 32.9165255,24.7543838 C32.9232464,24.733989 32.9299674,24.7135943 32.9366884,24.6999978 C32.9434094,24.6796031 32.9434094,24.6592083 32.9434094,24.6388136 C32.9434094,24.6184189 32.9501303,24.5980241 32.9501303,24.5776294 C32.9568513,24.5572346 32.9568513,24.5368399 32.9568513,24.5164452 Z M31.545446,24.8291645 L29.4014542,29.4451732 L27.2305784,28.0583311 L29.0922892,23.6122785 L31.545446,24.8291645 Z" id="Shape" stroke="#FF7B39" stroke-width="0.5" fill="#FF7B39"></path>
                        <path d="M10.3407617,10.6208311 L12.04789,10.6208311 C12.7468717,10.6208311 13.3114338,11.1918838 13.3114338,11.8989013 C13.3114338,12.6059189 12.7468717,13.1769715 12.04789,13.1769715 L8.97640326,13.1769715 C8.64035438,13.1769715 8.3647943,13.4556996 8.3647943,13.7956118 C8.3647943,14.1355241 8.64035438,14.4142522 8.97640326,14.4142522 L10.5827169,14.4142522 L10.5827169,15.6311382 C10.5827169,15.9710504 10.858277,16.2497785 11.1943259,16.2497785 C11.5303747,16.2497785 11.8059348,15.9710504 11.8059348,15.6311382 L11.8059348,14.4142522 L12.054611,14.4142522 C13.4256904,14.4142522 14.5413727,13.2857434 14.5413727,11.8989013 C14.5413727,10.5120592 13.4256904,9.38355044 12.054611,9.38355044 L10.3474827,9.38355044 C9.64850102,9.38355044 9.0839389,8.81249781 9.0839389,8.10548026 C9.0839389,7.39846272 9.64850102,6.82741009 10.3474827,6.82741009 L13.3652016,6.82741009 C13.7012505,6.82741009 13.9768106,6.54868202 13.9768106,6.20876974 C13.9768106,5.86885746 13.7012505,5.59012939 13.3652016,5.59012939 L11.8126558,5.59012939 L11.8126558,4.4004364 C11.8126558,4.06052412 11.5370957,3.78179605 11.2010468,3.78179605 C10.864998,3.78179605 10.5894379,4.06052412 10.5894379,4.4004364 L10.5894379,5.59692763 L10.3407617,5.59692763 C8.96968228,5.59692763 7.854,6.7254364 7.854,8.11227851 C7.86072098,9.49232237 8.97640326,10.6208311 10.3407617,10.6208311 Z" id="Path" stroke="none" fill="#FFFFFF"></path>
                        <path d="M11.2010468,19.9344276 C16.6181548,19.9344276 21.0203951,15.4747785 21.0203951,10.0021908 C21.0203951,4.52960307 16.6114338,0.0631557018 11.2010468,0.0631557018 C5.79065988,0.0631557018 1.3749776,4.52280482 1.3749776,10.0021908 C1.3749776,15.4815768 5.7839389,19.9344276 11.2010468,19.9344276 Z M11.2010468,1.3004364 C15.946057,1.3004364 19.8038982,5.20262939 19.8038982,10.0021908 C19.8038982,14.8017522 15.946057,18.7039452 11.2010468,18.7039452 C6.45603666,18.7039452 2.59819552,14.8017522 2.59819552,10.0021908 C2.59819552,5.20262939 6.45603666,1.3004364 11.2010468,1.3004364 Z" id="Shape" stroke="none" fill="#FF7B39"></path>
                    </g>
                </g>
            </g>
        </g>
    </g>
</svg>