<?xml version="1.0" encoding="UTF-8"?>
<svg width="65px" height="65px" viewBox="0 0 65 65" version="1.1" xmlns="http://www.w3.org/2000/svg" xmlns:xlink="http://www.w3.org/1999/xlink">
    <!-- Generator: Sketch 53.2 (72643) - https://sketchapp.com -->
    <title>third_banner_img2</title>
    <desc>Created with Sketch.</desc>
    <g id="Page-1-Copy" stroke="none" stroke-width="1" fill="none" fill-rule="evenodd">
        <g id="Artboard" transform="translate(-1740.000000, -727.000000)" fill="#FFFFFF" fill-rule="nonzero">
            <g id="third_banner_img2" transform="translate(1740.000000, 727.000000)">
                <path d="M35.8561614,15.2270545 C37.8729095,13.8163614 39.2310758,11.2028465 39.2310758,8.21622525 C39.2310758,4.17303218 38.4229462,0.039740099 32.4292787,0.039740099 C26.4356112,0.039740099 25.6274817,4.17303218 25.6274817,8.21622525 C25.6274817,11.2028465 26.9856479,13.8163614 29.0023961,15.2270545 C24.5402812,16.582401 21.3044254,20.5073391 21.3044254,25.1281312 C21.3044254,27.5102847 22.5028729,29.2018936 24.8662347,30.1558168 C26.5962836,30.8540842 28.9995355,31.179245 32.4291198,31.179245 C35.8588631,31.179245 38.261956,30.8540842 39.9920049,30.1558168 C42.3553667,29.2018936 43.5538142,27.5104455 43.5538142,25.1281312 C43.554132,20.5075 40.3182763,16.582401 35.8561614,15.2270545 Z" id="Path"></path>
                <path d="M14.5518949,45.8037624 C16.5683252,44.3929084 17.9264914,41.7793936 17.9264914,38.7929332 C17.9264914,34.7497401 17.1183619,30.616448 11.1245355,30.616448 C5.13070905,30.616448 4.32257946,34.7497401 4.32257946,38.7929332 C4.32257946,41.7795545 5.68074572,44.3929084 7.69717604,45.8037624 C3.23569682,47.1591089 0,51.084047 0,55.7046782 C0,58.0868317 1.19844743,59.7784406 3.56180929,60.7323639 C5.29185819,61.4306312 7.69511002,61.7557921 11.1246944,61.7557921 C14.5542787,61.7557921 16.9575306,61.4306312 18.6875795,60.7323639 C21.0509413,59.7782797 22.2493888,58.0868317 22.2493888,55.7046782 C22.2493888,51.084047 19.0136919,47.1591089 14.5518949,45.8037624 Z" id="Path"></path>
                <path d="M57.1613814,45.8037624 C59.1779707,44.3929084 60.535978,41.7793936 60.535978,38.7929332 C60.535978,34.7497401 59.7278484,30.616448 53.734022,30.616448 C47.7401956,30.616448 46.932066,34.7497401 46.932066,38.7929332 C46.932066,41.7795545 48.2902323,44.3929084 50.3066626,45.8037624 C45.8450244,47.1591089 42.6091687,51.084047 42.6091687,55.7046782 C42.6091687,58.0868317 43.8076161,59.7784406 46.170978,60.7323639 C47.9010269,61.4306312 50.3042787,61.7557921 53.7338631,61.7557921 C57.1634474,61.7557921 59.5666993,61.4306312 61.2967482,60.7323639 C63.66011,59.7784406 64.8585575,58.0869926 64.8585575,55.7046782 C64.8587164,51.084047 61.6230196,47.1591089 57.1613814,45.8037624 Z" id="Path"></path>
                <path d="M39.9451222,61.1822153 C39.8669315,60.9841584 39.7142054,60.8255198 39.5204768,60.7413738 C39.3269071,60.6572277 39.1082274,60.6543317 38.9124328,60.733651 C37.2038386,61.4245173 35.083313,61.7604579 32.4294377,61.7604579 C29.7755623,61.7604579 27.6550367,61.4246782 25.9464425,60.733651 C25.7509658,60.6544926 25.5321271,60.6573886 25.3383985,60.7413738 C25.1446699,60.8255198 24.9919438,60.9841584 24.9137531,61.1822153 L24.3243032,62.67625 C24.1615648,63.0887748 24.3600611,63.5568069 24.7673839,63.7215594 C26.8577139,64.5670421 29.3641076,64.9781188 32.4294377,64.9781188 C35.4947677,64.9781188 38.0011614,64.5670421 40.0914914,63.7215594 C40.4989731,63.5568069 40.6974694,63.0886139 40.5345721,62.67625 L39.9451222,61.1822153 Z" id="Path"></path>
                <path d="M9.00067237,26.5322277 L10.4611858,27.1664604 C10.5633741,27.2107054 10.6696944,27.2317822 10.7742665,27.2317822 C11.0822616,27.2317822 11.3756357,27.0491708 11.5048411,26.7442822 C12.2301711,25.0325619 13.4950489,23.2770792 15.371467,21.3774381 C17.2485208,19.4776361 18.9825428,18.197104 20.6728606,17.462797 C20.8665892,17.378651 21.0193154,17.2201733 21.0975061,17.0219554 C21.1755379,16.8238985 21.1729951,16.6023515 21.0897188,16.4062252 L20.4630807,14.927797 C20.2900122,14.5192946 19.8226161,14.3305693 19.4195844,14.5057797 C17.350868,15.4041955 15.291687,16.9077228 13.1242787,19.1019554 C10.9565526,21.296349 9.47156479,23.3811757 8.58413203,25.4756559 C8.41074572,25.8839975 8.59748166,26.3570173 9.00067237,26.5322277 Z" id="Path"></path>
                <path d="M44.1860147,17.462797 C45.8764914,18.197104 47.6105134,19.4776361 49.4874083,21.3774381 C51.3638264,23.2770792 52.6287042,25.0327228 53.3540342,26.7442822 C53.4832396,27.0491708 53.7764548,27.2317822 54.0846088,27.2317822 C54.1891809,27.2317822 54.2955012,27.2107054 54.3976895,27.1664604 L55.858044,26.5322277 C56.2612347,26.3570173 56.4479707,25.8839975 56.2749022,25.4758168 C55.3874694,23.3813366 53.9023227,21.296349 51.7347555,19.1021163 C49.5671883,16.9077228 47.5080073,15.4043564 45.4394499,14.5059406 C45.0364181,14.3307302 44.569022,14.5194554 44.3959535,14.9279579 L43.7693154,16.4063861 C43.686198,16.6025124 43.6834963,16.8238985 43.7615281,17.0221163 C43.8397188,17.2201733 43.992445,17.378651 44.1860147,17.462797 Z" id="Path"></path>
            </g>
        </g>
    </g>
</svg>