<?xml version="1.0" encoding="UTF-8"?>
<svg width="65px" height="65px" viewBox="0 0 65 65" version="1.1" xmlns="http://www.w3.org/2000/svg" xmlns:xlink="http://www.w3.org/1999/xlink">
    <!-- Generator: Sketch 53.2 (72643) - https://sketchapp.com -->
    <title>third_banner_img1</title>
    <desc>Created with Sketch.</desc>
    <g id="Page-1-Copy" stroke="none" stroke-width="1" fill="none" fill-rule="evenodd">
        <g id="Artboard" transform="translate(-1637.000000, -728.000000)" fill="#FFFFFF" fill-rule="nonzero">
            <g id="third_banner_img1" transform="translate(1637.000000, 728.000000)">
                <path d="M20.6040955,64.1162872 C16.3199234,59.655571 15.8755874,53.6629868 15.8572388,51.6143799 L4.35756687,56.5070342 C1.71089166,57.6332473 0.000495910645,60.2194214 0,63.0957031 L0,64.9990082 L21.5314483,64.9995041 C21.2110901,64.7193145 20.901146,64.4257354 20.6040955,64.1162872 L20.6040955,64.1162872 Z" id="Path"></path>
                <path d="M60.6424331,56.5070342 L49.1427612,51.6143799 C49.1244126,53.6634827 48.6810684,59.6545791 44.3959045,64.1157913 C44.098854,64.4257354 43.7889099,64.7198105 43.4680557,64.9995041 L65,65 L65,63.0952072 C64.9995041,60.2194214 63.2891083,57.6332473 60.6424331,56.5070342 L60.6424331,56.5070342 Z" id="Path"></path>
                <path d="M45.331192,48.7817383 C41.9852829,52.0225144 37.4308396,53.8068008 32.5,53.8068008 C27.5691604,53.8068008 23.0147171,52.0225144 19.668808,48.7817383 L19.668808,51.2221145 C19.6514511,51.8415069 19.5988846,57.5712585 23.3509446,61.4775467 C25.5954361,63.8147735 28.6740493,64.9995041 32.5,64.9995041 C36.3264465,64.9995041 39.4045639,63.8147735 41.6490554,61.4775467 C45.4011154,57.5712585 45.3490449,51.8415069 45.331192,51.2221145 L45.331192,48.7817383 Z" id="Path"></path>
                <path d="M14.4667053,36.4142227 L14.4667053,22.8183365 C14.4667053,21.4739228 14.5966338,20.1543045 14.851532,18.8718796 L13.1971741,18.8718796 C10.0471497,18.8718796 7.48428345,21.4347458 7.48428345,24.5847702 L7.48428345,32.7742386 C7.48428345,35.9247588 10.0471497,38.4876251 13.1971741,38.4876251 L14.5882034,38.4876251 C14.5083618,37.805252 14.4667053,37.1134568 14.4667053,36.4142227 L14.4667053,36.4142227 Z" id="Path"></path>
                <path d="M51.8028259,18.8718796 L50.0978852,18.8718796 C50.3865051,20.2351379 50.5332947,21.6400528 50.5332947,23.0776978 L50.5332947,36.4142227 C50.5332947,37.1134568 50.4916382,37.805252 50.4117966,38.4871292 L51.8028259,38.4871292 C54.9528503,38.4871292 57.5157166,35.9247588 57.5157166,32.7742386 L57.5157166,24.5847702 C57.5157166,21.4347458 54.9528503,18.8718796 51.8028259,18.8718796 Z" id="Path"></path>
                <path d="M32.5,0 C21.1371994,0 14.4002534,5.18672946 12.7711868,15.0737 C12.9125214,15.067749 13.0543518,15.0632859 13.1971741,15.0632859 L16.0263443,15.0632859 C16.8500518,13.1178284 17.8741074,11.632576 19.1386795,10.5475235 C20.6829453,9.22245022 22.5118637,8.55098728 24.574852,8.55098728 C26.777687,8.55098728 28.8059616,9.33849338 30.435524,9.97127536 C31.1084747,10.2331162 32.1196365,10.6253814 32.4990082,10.6620789 C32.8689575,10.6248855 33.8498687,10.2350998 34.5024872,9.97573853 C36.1008072,9.3409729 38.0899048,8.55049127 40.2793503,8.55049127 C44.9766159,8.55049127 47.5370025,12.0536041 48.8695144,15.06279 L51.8028259,15.06279 C51.9456482,15.06279 52.0874786,15.067749 52.2288132,15.0737 C50.5997466,5.18672946 43.8628006,0 32.5,0 Z" id="Path"></path>
                <path d="M43.3108521,41.1481858 C41.5325165,42.334404 39.4620896,42.9612351 37.3242188,42.9612351 L34.4042969,42.9612351 C33.3529663,42.9612351 32.5,42.1087646 32.5,41.0569382 C32.5,40.0051118 33.3529663,39.1526413 34.4042969,39.1526413 L37.3242188,39.1526413 C38.7073135,39.1526413 40.0472641,38.7469864 41.1977768,37.9798126 L46.7247009,34.2942046 L46.7247009,23.0776978 C46.7247009,20.8976746 46.3061523,18.7325288 45.4427719,16.7305374 C41.8741989,8.45478055 36.1037827,14.4721604 32.5,14.4721604 C28.7866211,14.4721604 22.4632644,8.08185574 19.1545486,17.5284576 C18.5594558,19.2269516 18.2752991,21.0186768 18.2752991,22.8183365 L18.2752991,36.4137268 C18.2752991,43.9163589 24.2406082,49.9982071 32.5,49.9982071 C39.7705459,49.9982071 45.2622605,45.2850723 46.4732742,39.0390777 L43.3108521,41.1481858 Z" id="Path"></path>
            </g>
        </g>
    </g>
</svg>