<?xml version="1.0" encoding="UTF-8"?>
<svg width="71px" height="65px" viewBox="0 0 71 65" version="1.1" xmlns="http://www.w3.org/2000/svg" xmlns:xlink="http://www.w3.org/1999/xlink">
    <!-- Generator: Sketch 53.2 (72643) - https://sketchapp.com -->
    <title>third_banner_img3</title>
    <desc>Created with Sketch.</desc>
    <g id="Page-1-Copy" stroke="none" stroke-width="1" fill="none" fill-rule="evenodd">
        <g id="Artboard" transform="translate(-1829.000000, -728.000000)" fill="#FFFFFF" fill-rule="nonzero">
            <g id="third_banner_img3" transform="translate(1829.000000, 728.000000)">
                <path d="M25.9571018,40.6579865 C23.9897789,38.6435421 21.3595404,37.2968418 18.3551193,36.7220337 C22.6006702,35.2995892 25.669614,31.2868956 25.669614,26.5680875 C25.669614,20.6640337 20.8667754,15.8602626 14.9633123,15.8602626 C9.05984912,15.8602626 4.25750877,20.6640337 4.25750877,26.5680875 C4.25750877,31.2868956 7.32645263,35.2995892 11.5717544,36.7220337 C8.56758246,37.2968418 5.93759298,38.6432929 3.97002105,40.6574882 C1.37117193,43.3182492 0.0500736842,46.9910909 0.14997193,51.2788552 C0.181361404,52.6312862 1.2867193,53.711138 2.63920702,53.711138 L27.2881649,53.711138 C28.6406526,53.711138 29.7457614,52.6312862 29.7771509,51.2788552 C29.8772982,46.9910909 28.5562,43.3182492 25.9571018,40.6579865 Z" id="Path"></path>
                <path d="M67.0299789,25.7167138 C65.0626561,23.7025185 62.4324175,22.3558182 59.4279965,21.7807609 C63.6735474,20.3585657 66.7424912,16.3458721 66.7424912,11.627064 C66.7424912,5.7230101 61.9396526,0.919239057 56.0361895,0.919239057 C50.1327263,0.919239057 45.3298877,5.72276094 45.3298877,11.627064 C45.3298877,16.3456229 48.3988316,20.3585657 52.6441333,21.7807609 C49.6399614,22.3558182 47.0099719,23.7022694 45.0424,25.7164646 C42.4433018,28.3772256 41.1224526,32.0500673 41.2223509,36.3378316 C41.2537404,37.6900135 42.3590982,38.7701145 43.7113368,38.7701145 L68.3602947,38.7701145 C69.7127825,38.7701145 70.8181404,37.6900135 70.8495298,36.3378316 C70.9499263,32.0500673 69.6288281,28.3772256 67.0299789,25.7167138 Z" id="Path"></path>
                <path d="M60.5218947,42.455165 C59.3938667,41.6683232 57.8418316,41.9448889 57.0553509,43.0728283 C52.5350175,49.5534343 45.3620246,53.6309091 37.5707088,54.2488215 L39.1695789,52.6497239 C40.1419053,51.6772593 40.1419053,50.1003367 39.1695789,49.1278721 C38.1972526,48.1556566 36.6210526,48.1556566 35.6484772,49.1278721 L29.8386842,54.9382424 C28.866607,55.9107071 28.866607,57.4873805 29.8386842,58.4600943 L35.6484772,64.2704646 C36.1347649,64.7565724 36.7717719,65 37.4090281,65 C38.0462842,65 38.6832912,64.7565724 39.1693298,64.2704646 C40.1416561,63.2982492 40.1416561,61.7213266 39.1693298,60.748862 L37.6571544,59.2362222 C47.0438526,58.5851717 55.704607,53.7136296 61.1389719,45.9219529 C61.9257018,44.7942626 61.6494246,43.2417576 60.5218947,42.455165 Z" id="Path"></path>
            </g>
        </g>
    </g>
</svg>