<?xml version="1.0" encoding="UTF-8"?>
<svg width="70px" height="70px" viewBox="0 0 70 70" version="1.1" xmlns="http://www.w3.org/2000/svg" xmlns:xlink="http://www.w3.org/1999/xlink">
    <!-- Generator: Sketch 53.2 (72643) - https://sketchapp.com -->
    <title>First_banner_img5</title>
    <desc>Created with Sketch.</desc>
    <g id="Page-1-Copy" stroke="none" stroke-width="1" fill="none" fill-rule="evenodd">
        <g id="Artboard" transform="translate(-1288.000000, -364.000000)">
            <g id="First_banner_img5" transform="translate(1288.000000, 364.000000)">
                <circle id="Oval" fill="#FFFFFF" cx="35" cy="35" r="35"></circle>
                <g id="passport" transform="translate(22.500000, 16.500000)" fill="#FF7B39" fill-rule="nonzero">
                    <path d="M12.5,14.1953535 C11.9449286,14.992082 11.224,16.429373 11.0418571,18.668668 L13.958,18.668668 C13.776,16.429373 13.055,14.992082 12.5,14.1953535 Z" id="Path"></path>
                    <path d="M16.1075,20.8367813 C15.9737857,22.7496523 15.4977857,24.2274844 14.9660714,25.3186953 C16.7512857,24.5058516 18.0768571,22.8402012 18.4336429,20.8367813 L16.1075,20.8367813 Z" id="Path"></path>
                    <path d="M11.0429286,20.8367813 C11.2274286,23.0567813 11.9519286,24.5020215 12.5044286,25.3036641 C13.0589286,24.505707 13.7765,23.0701504 13.958,20.8367813 L11.0429286,20.8367813 Z" id="Path"></path>
                    <path d="M14.9660714,14.1867539 C15.4978571,15.2778926 15.9737143,16.7557969 16.1075,18.6685957 L18.4335714,18.6685957 C18.0768571,16.6653926 16.7512857,14.9995977 14.9660714,14.1867539 Z" id="Path"></path>
                    <path d="M8.89242857,20.8367813 L6.56642857,20.8367813 C6.92314286,22.8400566 8.24878571,24.5057793 10.0338571,25.3185508 C9.50214286,24.2274844 9.02621429,22.7496523 8.89242857,20.8367813 Z" id="Path"></path>
                    <path d="M6.56642857,18.668668 L8.89242857,18.668668 C9.02614286,16.7557969 9.50214286,15.2779648 10.0338571,14.1868984 C8.24871429,14.9996699 6.92314286,16.6653926 6.56642857,18.668668 Z" id="Path"></path>
                    <path d="M0.0367142857,6.84348242 L0.0367142857,37 L24.9632857,37 L24.9632857,6.84348242 L0.0367142857,6.84348242 Z M19.6024286,32.3620645 L5.39764286,32.3620645 L5.39764286,30.1939512 L19.6024286,30.1939512 L19.6024286,32.3620645 L19.6024286,32.3620645 Z M12.5,28.0224414 C7.99285714,28.0224414 4.32621429,24.3126133 4.32621429,19.7527246 C4.32621429,15.1928359 7.99292857,11.4830801 12.5,11.4830801 C17.0071429,11.4830801 20.6738571,15.1928359 20.6738571,19.7527246 C20.6738571,24.3126133 17.0070714,28.0224414 12.5,28.0224414 Z" id="Shape"></path>
                    <polygon id="Path" points="0.996 4.67536914 22.8186429 4.67536914 22.8186429 0"></polygon>
                </g>
            </g>
        </g>
    </g>
</svg>